<svg width="26" height="26" viewBox="0 0 26 26" fill="none" xmlns="http://www.w3.org/2000/svg">
<path d="M13 24.8692C16.1813 24.8649 19.231 23.6061 21.4805 21.3689C23.73 19.1317 24.9957 16.0986 25 12.9346H1C1.00435 16.0986 2.27003 19.1317 4.51952 21.3689C6.76902 23.6061 9.81874 24.8649 13 24.8692Z" fill="white"/>
<path d="M13 1C9.81874 1.00433 6.76902 2.26311 4.51952 4.50034C2.27003 6.73757 1.00435 9.77067 1 12.9346H25C24.9957 9.77067 23.73 6.73757 21.4805 4.50034C19.231 2.26311 16.1813 1.00433 13 1Z" fill="#CD1225"/>
<path d="M13 25.0001C19.6274 25.0001 25 19.6568 25 13.0655C25 6.47416 19.6274 1.13086 13 1.13086C6.37258 1.13086 1 6.47416 1 13.0655C1 19.6568 6.37258 25.0001 13 25.0001Z" stroke="#929497" stroke-width="0.5" stroke-miterlimit="10"/>
</svg>
