<svg width="16" height="16" viewBox="0 0 16 16" fill="none" xmlns="http://www.w3.org/2000/svg">
<path d="M4.56752 7.68021H2.16986C2.05153 7.68021 1.93806 7.63204 1.85439 7.54631C1.77073 7.46058 1.72372 7.34431 1.72372 7.22306V0.457143C1.72372 0.335901 1.77073 0.219625 1.85439 0.133894C1.93806 0.0481631 2.05153 0 2.16986 0H15.5539C15.6722 0 15.7857 0.0481631 15.8693 0.133894C15.953 0.219625 16 0.335901 16 0.457143V7.22306C16 7.34431 15.953 7.46058 15.8693 7.54631C15.7857 7.63204 15.6722 7.68021 15.5539 7.68021H13.1558V15.5429C13.1558 15.6641 13.1088 15.7804 13.0251 15.8661C12.9415 15.9518 12.828 16 12.7097 16H5.01386C4.89553 16 4.78206 15.9518 4.69839 15.8661C4.61473 15.7804 4.56772 15.6641 4.56772 15.5429V7.68021H4.56752ZM8.1811 7.58868H8.5517V7.20197C8.5517 6.6001 9.44396 6.6001 9.44396 7.20197V7.58868H10.1685C10.7558 7.58868 10.7558 8.50296 10.1685 8.50296H8.1812C7.72493 8.50296 7.7013 9.2346 8.1812 9.2346H9.54232C11.1368 9.2346 11.2255 11.7947 9.54232 11.7947H9.44396V12.1814C9.44396 12.7833 8.5517 12.7833 8.5517 12.1814V11.7947H7.55489C6.96762 11.7947 6.96762 10.8804 7.55489 10.8804H9.54221C10.0221 10.8804 9.99849 10.1489 9.54221 10.1489H8.1811C6.49796 10.1489 6.58668 7.58868 8.1811 7.58868ZM2.39292 12.3192L3.09903 11.4269C3.46648 10.9632 4.15698 11.5378 3.78912 12.0019L2.31373 13.8664C2.12038 14.1305 1.7732 14.1315 1.57853 13.8642L0.104764 12.0019C-0.263094 11.5378 0.427399 10.9629 0.794851 11.4269L1.50066 12.3189V9.45881C1.50066 8.85693 2.39292 8.85693 2.39292 9.45881V12.3192ZM3.68641 4.29725C3.09903 4.29725 3.09903 3.38296 3.68641 3.38296H14.037C14.6244 3.38296 14.6244 4.29725 14.037 4.29725H13.1558V6.76592H15.1077V0.914286H2.61599V6.76592H4.56782V4.29725H3.68641ZM12.2635 4.29725H5.45999V15.0857H12.2635V4.29725Z" fill="white"/>
</svg>
