<svg width="11" height="11" viewBox="0 0 11 11" fill="none" xmlns="http://www.w3.org/2000/svg">
<path d="M11 5.5C11 6.58792 10.6774 7.6514 10.0729 8.55593C9.46841 9.46046 8.60926 10.1654 7.60411 10.5816C6.59895 10.9978 5.49294 11.1066 4.42596 10.8941C3.35899 10.6817 2.37899 10.1576 1.60991 9.38809C0.840839 8.61861 0.317238 7.63834 0.105339 6.57126C-0.10656 5.50418 0.00276169 4.39822 0.419477 3.39328C0.836193 2.38834 1.54158 1.52955 2.44642 0.925542C3.35127 0.321535 4.41491 -0.0005589 5.50283 7.28015e-07C6.22497 6.32374e-07 6.94003 0.142283 7.60716 0.418718C8.27429 0.695154 8.88042 1.10033 9.39092 1.61108C9.90141 2.12184 10.3063 2.72818 10.5824 3.39546C10.8585 4.06273 11.0004 4.77786 11 5.5Z" fill="#8A93A7"/>
<path d="M4.9739 1.71165H6.17632C6.19068 1.71164 6.2049 1.71451 6.21813 1.72009C6.23136 1.72567 6.24334 1.73384 6.25336 1.74413C6.26338 1.75441 6.27124 1.7666 6.27647 1.77997C6.28171 1.79335 6.28421 1.80763 6.28383 1.82199V4.78135C6.28383 4.82662 6.28383 5.73762 6.29798 6.13088C6.29798 6.17767 6.27959 6.22258 6.24678 6.25593C6.21396 6.28928 6.16935 6.30838 6.12257 6.30912H4.9739C4.95955 6.3095 4.94526 6.307 4.93189 6.30177C4.91852 6.29653 4.90633 6.28868 4.89605 6.27865C4.88576 6.26863 4.87759 6.25665 4.87201 6.24342C4.86643 6.23019 4.86356 6.21597 4.86356 6.20161V1.82199C4.86317 1.80739 4.86576 1.79287 4.87117 1.77931C4.87658 1.76574 4.88469 1.75342 4.89501 1.7431C4.90534 1.73277 4.91766 1.72466 4.93122 1.71925C4.94478 1.71385 4.95931 1.71126 4.9739 1.71165Z" fill="white"/>
<path d="M4.89182 6.11963L5.74059 5.27087C5.76126 5.25031 5.78923 5.23877 5.81839 5.23877C5.84755 5.23877 5.87552 5.25031 5.89619 5.27087L6.91754 6.29222L7.87947 7.23718C7.89633 7.25353 7.90973 7.2731 7.91888 7.29472C7.92803 7.31635 7.93274 7.33959 7.93274 7.36308C7.93274 7.38656 7.92803 7.4098 7.91888 7.43143C7.90973 7.45306 7.89633 7.47262 7.87947 7.48898L7.07598 8.30096C7.0553 8.32152 7.02733 8.33306 6.99817 8.33306C6.96902 8.33306 6.94104 8.32152 6.92037 8.30096L5.99521 7.37298L4.89465 6.27524C4.87409 6.25457 4.86255 6.2266 4.86255 6.19744C4.86255 6.16828 4.87409 6.14031 4.89465 6.11963" fill="white"/>
</svg>
