<svg width="22" height="22" viewBox="0 0 22 22" fill="none" xmlns="http://www.w3.org/2000/svg">
<path d="M6.28034 10.5603H2.98355C2.82086 10.5603 2.66483 10.4941 2.54979 10.3762C2.43475 10.2583 2.37012 10.0984 2.37012 9.93171V0.628571C2.37012 0.461864 2.43475 0.301984 2.54979 0.184104C2.66483 0.0662243 2.82086 0 2.98355 0H21.3866C21.5493 0 21.7053 0.0662243 21.8203 0.184104C21.9354 0.301984 22 0.461864 22 0.628571V9.93171C22 10.0984 21.9354 10.2583 21.8203 10.3762C21.7053 10.4941 21.5493 10.5603 21.3866 10.5603H18.0892V21.3714C18.0892 21.5381 18.0246 21.698 17.9095 21.8159C17.7945 21.9338 17.6385 22 17.4758 22H6.89405C6.73136 22 6.57533 21.9338 6.46029 21.8159C6.34525 21.698 6.28062 21.5381 6.28062 21.3714V10.5603H6.28034ZM11.249 10.4344H11.7586V9.90271C11.7586 9.07514 12.9855 9.07514 12.9855 9.90271V10.4344H13.9817C14.7892 10.4344 14.7892 11.6916 13.9817 11.6916H11.2492C10.6218 11.6916 10.5893 12.6976 11.2492 12.6976H13.1207C15.3132 12.6976 15.435 16.2177 13.1207 16.2177H12.9855V16.7494C12.9855 17.577 11.7586 17.577 11.7586 16.7494V16.2177H10.388C9.58047 16.2177 9.58047 14.9606 10.388 14.9606H13.1205C13.7804 14.9606 13.7479 13.9547 13.1205 13.9547H11.249C8.9347 13.9547 9.05669 10.4344 11.249 10.4344ZM3.29027 16.9389L4.26117 15.712C4.76641 15.0744 5.71584 15.8644 5.21004 16.5026L3.18138 19.0663C2.91552 19.4294 2.43815 19.4309 2.17047 19.0633L0.14405 16.5026C-0.361754 15.8644 0.587674 15.074 1.09292 15.712L2.0634 16.9384V13.0059C2.0634 12.1783 3.29027 12.1783 3.29027 13.0059V16.9389ZM5.06881 5.90871C4.26117 5.90871 4.26117 4.65157 5.06881 4.65157H19.3009C20.1085 4.65157 20.1085 5.90871 19.3009 5.90871H18.0892V9.30314H20.7731V1.25714H3.59699V9.30314H6.28076V5.90871H5.06881ZM16.8624 5.90871H7.50749V20.7429H16.8624V5.90871Z" fill="#8A93A7"/>
</svg>
